<svg xmlns="http://www.w3.org/2000/svg" width="16" height="16" viewBox="0 0 16 16">
    <path fill="#4164BB" fill-rule="evenodd" d="M9.842 9.437c0-.126.101-.229.225-.228l2.59.02A.226.226 0 0 0 12.882 9l.009-2.715c0-.126-.1-.23-.223-.23h-2.603a.226.226 0 0 1-.223-.228v-1.35c0-.913.247-1.535 1.526-1.535l1.409-.001A.226.226 0 0 0 13 2.714V.329A.226.226 0 0 0 12.798.1 23.177 23.177 0 0 0 10.622 0C8.271 0 6.66 1.469 6.66 4.165v1.663c0 .126-.1.229-.223.229H4.223A.226.226 0 0 0 4 6.285V8.98c0 .126.1.228.223.228h2.214c.123 0 .223.102.223.229v6.31c0 .126.1.229.223.229H9.62a.226.226 0 0 0 .223-.229V9.437z"/>
</svg>
