<?xml version="1.0" encoding="UTF-8"?>
<svg width="20px" height="20px" viewBox="0 0 20 20" version="1.1" xmlns="http://www.w3.org/2000/svg" xmlns:xlink="http://www.w3.org/1999/xlink">
    <!-- Generator: sketchtool 58 (101010) - https://sketch.com -->
    <title>A19C1C7A-B375-4DD1-8DCB-22C5A751A1D8</title>
    <desc>Created with sketchtool.</desc>
    <g id="Page-1" stroke="none" stroke-width="1" fill="none" fill-rule="evenodd" opacity="0.2">
        <g id="Mobile" transform="translate(-289.000000, -365.000000)">
            <g id="footer" transform="translate(0.000000, 343.000000)">
                <g id="Group" transform="translate(20.000000, 20.000000)">
                    <g id="Group-29">
                        <g id="Group-4" transform="translate(223.000000, 0.000000)">
                            <g id="ft_ic_facebook" transform="translate(44.000000, 0.000000)">
                                <rect id="Rectangle-path" x="0" y="0" width="24" height="24"></rect>
                                <path d="M19.4997064,2 L4.5002936,2 C3.1250734,2 2,3.123899 2,4.4991192 L2,19.498532 C2,20.8737522 3.1250734,21.9988256 4.5002936,21.9988256 L12.0869055,21.9988256 L12.0869055,14.8279507 L9.69113329,14.8279507 L9.69113329,11.7040517 L12.0869055,11.7040517 L12.0869055,10.138579 C12.0869055,7.72636524 13.8684674,5.83675866 16.1421022,5.83675866 L18.3499706,5.83675866 L18.3499706,9.36465062 L16.374633,9.36465062 C15.8578978,9.36465062 15.7064005,9.66177334 15.7064005,10.0728127 L15.7064005,11.7052261 L18.3499706,11.7052261 L18.3499706,14.8291251 L15.7064005,14.8291251 L15.7064005,22 L19.4997064,22 C20.8749266,22 22,20.8749266 22,19.4997064 L22,4.4979448 C22,3.123899 20.8749266,2 19.4997064,2 L19.4997064,2 Z" id="Shape" fill="#000000"></path>
                            </g>
                        </g>
                    </g>
                </g>
            </g>
        </g>
    </g>
</svg>