<?xml version="1.0" encoding="UTF-8"?>
<svg width="20px" height="20px" viewBox="0 0 20 20" version="1.1" xmlns="http://www.w3.org/2000/svg" xmlns:xlink="http://www.w3.org/1999/xlink">
    <!-- Generator: sketchtool 58 (101010) - https://sketch.com -->
    <title>D17A0204-8472-4EE9-9FD7-9F7501DD47F7</title>
    <desc>Created with sketchtool.</desc>
    <g id="Page-1" stroke="none" stroke-width="1" fill="none" fill-rule="evenodd" opacity="0.2">
        <g id="Mobile" transform="translate(-245.000000, -365.000000)">
            <g id="footer" transform="translate(0.000000, 343.000000)">
                <g id="Group" transform="translate(20.000000, 20.000000)">
                    <g id="Group-29">
                        <g id="Group-4" transform="translate(223.000000, 0.000000)">
                            <g id="ft_ic_intagram">
                                <rect id="Rectangle-path" x="0" y="0" width="24" height="24"></rect>
                                <path d="M12,18.0458015 C8.66040395,18.0458015 5.95490841,15.3388139 5.95490841,12 C5.95490841,11.601879 5.99365899,11.2131533 6.06763739,10.8373459 L2.00234852,10.8373459 L2.00234852,18.8749266 C2.00234852,20.6012918 3.39971818,22 5.12705496,22 L18.8752936,22 C20.6002818,22 22,20.6012918 22,18.8749266 L22,10.8373459 L17.9335369,10.8373459 C18.0051667,11.2131533 18.0450916,11.601879 18.0450916,12 C18.0450916,15.3399883 15.3372475,18.0458015 12,18.0458015 Z M5.12470643,2 C3.39736966,2 2,3.39870816 2,5.123899 L2,8.51086318 L7.06223579,8.51086318 C8.15664631,6.96418086 9.95913574,5.95302408 12,5.95302408 C14.0385157,5.95302408 15.8410052,6.96300646 16.9365899,8.51086318 L21.9988257,8.51086318 L21.9988257,5.123899 C21.9976515,3.39988256 20.5979333,2 18.872945,2 L5.12470643,2 Z M19.842884,6.41808573 L18.1683889,6.41808573 C17.861907,6.41808573 17.6106153,6.16793893 17.6106153,5.86024662 L17.6106153,4.1855549 C17.6106153,3.8778626 17.861907,3.6265414 18.1683889,3.6265414 L19.842884,3.6265414 C20.1493659,3.6265414 20.4006576,3.8778626 20.4006576,4.1855549 L20.4006576,5.86024662 C20.4006576,6.16793893 20.1505402,6.41808573 19.842884,6.41808573 Z M11.9988257,8.27833235 C9.94387036,8.27833235 8.27876938,9.94480329 8.27876938,12 C8.27876938,14.0551967 9.94387036,15.7204932 11.9988257,15.7204932 C14.0537811,15.7204932 15.7188821,14.0551967 15.7188821,12 C15.7188821,9.94480329 14.0537811,8.27833235 11.9988257,8.27833235 Z" id="Shape" fill="#000000"></path>
                            </g>
                        </g>
                    </g>
                </g>
            </g>
        </g>
    </g>
</svg>