<svg xmlns="http://www.w3.org/2000/svg" width="24" height="18" viewBox="0 0 24 18">
    <g fill="none" fill-rule="evenodd" opacity=".2">
        <path d="M0-3h24v24H0z"/>
        <g fill-rule="nonzero">
            <path fill="#000" d="M23.506 3.16a3.025 3.025 0 0 0-2.116-2.14C19.512.5 12 .5 12 .5S4.488.5 2.61 1C1.6 1.28.77 2.12.493 3.16 0 5.06 0 9 0 9s0 3.96.494 5.84a3.025 3.025 0 0 0 2.116 2.14c1.897.52 9.39.52 9.39.52s7.512 0 9.39-.5a3.025 3.025 0 0 0 2.116-2.14C24 12.96 24 9.02 24 9.02s.02-3.96-.494-5.86z"/>
            <path fill="#FFF" d="M10 12.5L16 9l-6-3.5z"/>
        </g>
    </g>
</svg>
