<svg xmlns="http://www.w3.org/2000/svg" width="12" height="15" viewBox="0 0 12 15">
    <g fill="none" fill-rule="evenodd" opacity=".5">
        <path d="M-4-2h20v20H-4z"/>
        <path fill="#000" d="M10.97 5.142H9.427v-1.2C9.427 1.46 8.284 0 6 0 3.715 0 2.571 1.46 2.571 3.942v1.2H.857C.383 5.142 0 5.697 0 6.171v6.685c0 .471.367.976.815 1.12l1.026.331a6.558 6.558 0 0 0 1.673.263h4.971a6.57 6.57 0 0 0 1.674-.263l1.026-.33c.448-.145.815-.65.815-1.12V6.17c0-.474-.557-1.029-1.03-1.029zM4.284 3.6c0-1.238.684-1.885 1.714-1.885 1.03 0 1.714.648 1.714 1.885v1.543H4.284V3.6z"/>
    </g>
</svg>
