<svg xmlns="http://www.w3.org/2000/svg" width="16" height="16" viewBox="0 0 16 16">
    <path fill="#FFF" fill-rule="evenodd" d="M12.842 9.452c0-.127.101-.23.225-.229l2.59.02a.226.226 0 0 0 .225-.228l.009-2.719c0-.127-.1-.23-.223-.23h-2.603a.226.226 0 0 1-.223-.228V4.484c0-.914.247-1.536 1.526-1.536l1.409-.001A.226.226 0 0 0 16 2.718V.329a.227.227 0 0 0-.202-.227A23.14 23.14 0 0 0 13.622 0C11.271 0 9.66 1.47 9.66 4.172v1.666c0 .126-.1.228-.223.228H7.223a.226.226 0 0 0-.223.23v2.697c0 .126.1.229.223.229h2.214c.123 0 .223.102.223.229v6.32c0 .127.1.229.223.229h2.736a.226.226 0 0 0 .223-.229V9.452z"/>
</svg>
