<svg xmlns="http://www.w3.org/2000/svg" xmlns:xlink="http://www.w3.org/1999/xlink" version="1.1" width="180px" height="100%" x="0px" y="0px" viewBox="0 0 180 30" style="enable-background:new 0 0 180 30;" xml:space="preserve">
    <g>
        <g>
            <path style="fill:#1E1E1E;" d="M44.383,24.64c-1.714,0-3.252-0.249-4.613-0.748c-1.362-0.498-2.516-1.231-3.46-2.196    c-0.945-0.966-1.67-2.144-2.174-3.536c-0.506-1.391-0.758-2.99-0.758-4.797s0.291-3.406,0.874-4.797    c0.582-1.391,1.378-2.57,2.389-3.536c1.01-0.966,2.196-1.698,3.559-2.196c1.362-0.498,2.822-0.748,4.382-0.748    c0.945,0,1.801,0.068,2.57,0.203c0.768,0.136,1.438,0.286,2.01,0.452c0.571,0.167,1.043,0.343,1.416,0.53    c0.374,0.187,0.637,0.322,0.791,0.405l-1.219,3.209c-0.527-0.311-1.28-0.607-2.257-0.888c-0.978-0.28-2.038-0.42-3.18-0.42    c-0.988,0-1.911,0.161-2.768,0.483c-0.857,0.322-1.598,0.805-2.224,1.449c-0.626,0.644-1.116,1.454-1.467,2.43    c-0.352,0.976-0.527,2.108-0.527,3.396c0,1.142,0.137,2.191,0.412,3.146c0.275,0.955,0.697,1.781,1.269,2.477    c0.571,0.696,1.296,1.236,2.175,1.62c0.878,0.385,1.933,0.576,3.163,0.576c1.472,0,2.669-0.14,3.591-0.421    c0.923-0.28,1.636-0.545,2.142-0.794l1.12,3.209c-0.263,0.167-0.621,0.332-1.071,0.498c-0.451,0.167-0.983,0.327-1.598,0.483    c-0.615,0.156-1.307,0.28-2.076,0.374C46.085,24.593,45.261,24.64,44.383,24.64z"></path>
            <path style="fill:#1E1E1E;" d="M53.241,24.172V2.32l3.987-0.623v6.369c0.439-0.145,0.95-0.27,1.532-0.374    c0.582-0.104,1.158-0.156,1.73-0.156c1.384,0,2.531,0.182,3.443,0.545c0.911,0.364,1.642,0.872,2.191,1.526    c0.548,0.654,0.939,1.438,1.17,2.352c0.231,0.914,0.346,1.932,0.346,3.053v9.159h-3.987v-8.567c0-0.872-0.061-1.615-0.181-2.227    c-0.121-0.613-0.319-1.111-0.593-1.495c-0.275-0.384-0.642-0.665-1.104-0.841c-0.461-0.176-1.033-0.265-1.714-0.265    c-0.527,0-1.065,0.052-1.615,0.156c-0.549,0.104-0.955,0.197-1.219,0.28v12.959H53.241z"></path>
            <path style="fill:#1E1E1E;" d="M69.701,16.103c0-1.433,0.225-2.689,0.676-3.769c0.45-1.08,1.049-1.978,1.796-2.695    c0.746-0.716,1.603-1.256,2.57-1.62c0.966-0.363,1.955-0.545,2.965-0.545c2.373,0,4.223,0.696,5.552,2.087    c1.329,1.392,1.994,3.469,1.994,6.23c0,0.208-0.006,0.442-0.017,0.701c-0.011,0.26-0.028,0.494-0.05,0.701H73.82    c0.11,1.308,0.598,2.321,1.466,3.037c0.867,0.717,2.125,1.075,3.773,1.075c0.966,0,1.85-0.083,2.652-0.249    c0.802-0.166,1.433-0.343,1.895-0.53l0.527,3.084c-0.22,0.104-0.522,0.213-0.906,0.327c-0.384,0.114-0.824,0.218-1.318,0.312    c-0.494,0.093-1.027,0.171-1.598,0.233c-0.572,0.062-1.153,0.093-1.747,0.093c-1.516,0-2.834-0.213-3.954-0.638    c-1.121-0.425-2.043-1.017-2.768-1.776c-0.725-0.758-1.263-1.651-1.615-2.679C69.876,18.456,69.701,17.329,69.701,16.103z     M81.266,14.421c0-0.519-0.077-1.013-0.231-1.48c-0.154-0.467-0.379-0.872-0.675-1.215c-0.297-0.343-0.659-0.613-1.087-0.81    c-0.429-0.197-0.939-0.296-1.532-0.296c-0.615,0-1.153,0.109-1.615,0.327c-0.461,0.218-0.852,0.504-1.17,0.857    c-0.319,0.354-0.566,0.758-0.741,1.215c-0.176,0.457-0.296,0.924-0.363,1.402H81.266z"></path>
            <path style="fill:#1E1E1E;" d="M97.391,11.275c-0.33-0.104-0.786-0.213-1.368-0.327c-0.582-0.114-1.258-0.171-2.026-0.171    c-0.44,0-0.906,0.042-1.401,0.124c-0.494,0.083-0.84,0.156-1.038,0.218v13.053h-3.987V8.658c0.768-0.269,1.73-0.524,2.883-0.763    c1.153-0.239,2.432-0.358,3.839-0.358c0.263,0,0.571,0.015,0.923,0.047c0.351,0.031,0.703,0.073,1.054,0.125    c0.351,0.052,0.692,0.114,1.022,0.187c0.33,0.073,0.593,0.14,0.791,0.203L97.391,11.275z"></path>
            <path style="fill:#1E1E1E;" d="M109.12,11.275c-0.33-0.104-0.786-0.213-1.368-0.327c-0.582-0.114-1.258-0.171-2.026-0.171    c-0.44,0-0.906,0.042-1.4,0.124c-0.494,0.083-0.84,0.156-1.038,0.218v13.053H99.3V8.658c0.769-0.269,1.73-0.524,2.883-0.763    c1.154-0.239,2.433-0.358,3.839-0.358c0.264,0,0.571,0.015,0.923,0.047c0.351,0.031,0.703,0.073,1.055,0.125    c0.351,0.052,0.692,0.114,1.021,0.187c0.33,0.073,0.593,0.14,0.791,0.203L109.12,11.275z"></path>
            <path style="fill:#1E1E1E;" d="M126.367,7.879c-1.776,6.189-3.837,11.797-6.183,16.823c-0.44,0.934-0.891,1.734-1.352,2.399    c-0.462,0.664-0.979,1.215-1.55,1.651c-0.572,0.436-1.21,0.752-1.913,0.95c-0.704,0.197-1.517,0.296-2.441,0.296    c-0.615,0-1.226-0.062-1.831-0.187c-0.605-0.125-1.062-0.26-1.369-0.405l0.725-3.022c0.794,0.291,1.578,0.436,2.35,0.436    c1.037,0,1.847-0.233,2.432-0.701c0.585-0.467,1.098-1.189,1.539-2.165c-1.257-2.284-2.465-4.777-3.624-7.477    c-1.158-2.7-2.189-5.566-3.093-8.598h4.251c0.221,0.872,0.49,1.818,0.81,2.835c0.32,1.018,0.667,2.051,1.042,3.1    c0.375,1.049,0.771,2.093,1.19,3.131c0.419,1.039,0.838,2.005,1.257,2.897c0.699-1.849,1.355-3.816,1.968-5.904    c0.613-2.087,1.17-4.107,1.673-6.059H126.367z"></path>
            <rect x="145.767" y="7.879" style="fill:#1E1E1E;" width="3.987" height="16.293"></rect>
            <path style="fill:#1E1E1E;" d="M151.715,16.041c0-1.204,0.197-2.331,0.593-3.38c0.395-1.049,0.961-1.957,1.697-2.726    c0.735-0.768,1.631-1.371,2.685-1.807c1.055-0.436,2.241-0.654,3.559-0.654c1.625,0,3.163,0.28,4.613,0.841l-0.857,3.084    c-0.461-0.187-0.983-0.343-1.565-0.467c-0.582-0.125-1.203-0.187-1.861-0.187c-1.56,0-2.746,0.463-3.559,1.387    c-0.813,0.924-1.219,2.227-1.219,3.909c0,1.62,0.384,2.902,1.153,3.848c0.768,0.945,2.065,1.417,3.888,1.417    c0.681,0,1.351-0.062,2.01-0.187c0.659-0.124,1.23-0.28,1.714-0.467l0.56,3.115c-0.44,0.208-1.104,0.395-1.994,0.561    c-0.889,0.166-1.807,0.249-2.751,0.249c-1.472,0-2.751-0.213-3.838-0.638c-1.087-0.425-1.989-1.017-2.702-1.776    c-0.714-0.758-1.247-1.661-1.598-2.71C151.891,18.404,151.715,17.267,151.715,16.041z"></path>
            <path style="fill:#1E1E1E;" d="M172.623,7.475c1.318,0,2.427,0.156,3.328,0.467c0.901,0.312,1.62,0.748,2.158,1.308    c0.538,0.561,0.923,1.242,1.153,2.041c0.231,0.8,0.346,1.677,0.346,2.632v9.875c-0.615,0.124-1.543,0.275-2.784,0.452    c-1.241,0.176-2.642,0.265-4.201,0.265c-1.033,0-1.977-0.094-2.834-0.28s-1.588-0.488-2.191-0.903    c-0.605-0.415-1.077-0.955-1.417-1.62c-0.341-0.665-0.511-1.485-0.511-2.461c0-0.935,0.192-1.724,0.577-2.367    c0.384-0.644,0.906-1.168,1.565-1.573c0.659-0.405,1.422-0.695,2.29-0.872c0.867-0.176,1.774-0.265,2.718-0.265    c0.439,0,0.901,0.026,1.384,0.078c0.483,0.052,0.999,0.14,1.548,0.265v-0.623c0-0.436-0.055-0.851-0.164-1.246    c-0.11-0.394-0.303-0.742-0.577-1.044c-0.275-0.301-0.637-0.534-1.087-0.701c-0.451-0.166-1.017-0.249-1.697-0.249    c-0.923,0-1.769,0.062-2.537,0.187c-0.769,0.125-1.395,0.27-1.878,0.436l-0.494-3.053c0.505-0.166,1.24-0.332,2.207-0.498    C170.492,7.558,171.525,7.475,172.623,7.475z M172.953,21.524c1.23,0,2.163-0.062,2.8-0.187v-4.175    c-0.219-0.062-0.538-0.124-0.955-0.187c-0.417-0.062-0.879-0.093-1.384-0.093c-0.44,0-0.885,0.031-1.334,0.093    c-0.451,0.062-0.857,0.177-1.22,0.343c-0.362,0.167-0.654,0.4-0.873,0.701c-0.22,0.302-0.33,0.681-0.33,1.137    c0,0.893,0.297,1.511,0.89,1.854C171.14,21.353,171.942,21.524,172.953,21.524z"></path>
            <g>
                <path style="fill:#1E1E1E;" d="M134.143,2.366c3.196,0,5.646,0.571,7.35,1.713c1.704,1.142,2.556,2.928,2.556,5.358     c0,1.267-0.228,2.352-0.683,3.255s-1.116,1.641-1.984,2.212c-0.868,0.572-1.926,0.992-3.175,1.262     c-1.249,0.27-2.678,0.405-4.287,0.405h-2v7.601h-4.001V2.895c0.931-0.207,1.964-0.348,3.096-0.421     C132.148,2.402,133.191,2.366,134.143,2.366z M134.429,5.761c-1.016,0-1.853,0.031-2.508,0.093v7.352h1.937     c1.926,0,3.408-0.265,4.445-0.794c1.037-0.529,1.556-1.531,1.556-3.006c0-0.706-0.138-1.298-0.413-1.776     c-0.275-0.477-0.656-0.851-1.143-1.121c-0.487-0.27-1.063-0.462-1.73-0.576C135.905,5.818,135.191,5.761,134.429,5.761z"></path>
            </g>
            <path style="fill:#1E1E1E;" d="M149.624-0.002h-4.902L145.19,4.9v0.282h0.282h0h1.959h0.564l0.399-0.399l1.581-1.581l0.399-0.399    V2.239l-0.469-1.959l0,0l0-0.282L149.624-0.002z"></path>
        </g>
        <path d="M0.484,3.449v23.098h12.582l10.516-10.516V3.449H0.484z M11.169,17.445v6.863H4.305L11.169,17.445z M19.762,5.687   L2.723,22.726V5.687H19.762z M21.344,7.27v6.864h-6.863L21.344,7.27z M20.077,16.372l-6.669,6.669v-6.669H20.077z"></path>
    </g>
</svg>